<svg width="600" height="375" viewBox="0 0 600 375" fill="none" xmlns="http://www.w3.org/2000/svg">
<g opacity="0.3">
<rect width="35.6861" height="35.6861" transform="matrix(1.19249e-08 -1 -1 -1.19249e-08 119.571 146.24)" fill="#D9D9D9"/>
<rect width="35.6861" height="35.6861" transform="matrix(1.19249e-08 -1 -1 -1.19249e-08 119.571 110.554)" fill="#D9D9D9" fill-opacity="0.5"/>
<rect width="35.6861" height="35.6861" transform="matrix(1.19249e-08 -1 -1 -1.19249e-08 83.8846 110.554)" fill="#D9D9D9" fill-opacity="0.9"/>
<rect width="35.6861" height="35.6861" transform="matrix(1.19249e-08 -1 -1 -1.19249e-08 119.571 74.8678)" fill="#D9D9D9" fill-opacity="0.9"/>
<rect width="35.6861" height="35.6861" transform="matrix(1.19249e-08 -1 -1 -1.19249e-08 119.571 39.1819)" fill="#D9D9D9" fill-opacity="0.5"/>
<rect width="35.6861" height="35.6861" transform="matrix(1.19249e-08 -1 -1 -1.19249e-08 155.257 39.1819)" fill="#D9D9D9" fill-opacity="0.9"/>
<rect width="35.6861" height="35.6861" transform="matrix(1.19249e-08 -1 -1 -1.19249e-08 50.2084 146.24)" fill="#D9D9D9" fill-opacity="0.9"/>
</g>
<g opacity="0.3">
<rect width="35.6861" height="35.6861" transform="matrix(1.19249e-08 -1 -1 -1.19249e-08 564.314 374.058)" fill="#D9D9D9"/>
<rect width="35.6861" height="35.6861" transform="matrix(1.19249e-08 -1 -1 -1.19249e-08 564.314 338.372)" fill="#D9D9D9" fill-opacity="0.5"/>
<rect width="35.6861" height="35.6861" transform="matrix(1.19249e-08 -1 -1 -1.19249e-08 528.628 338.372)" fill="#D9D9D9" fill-opacity="0.9"/>
<rect width="35.6861" height="35.6861" transform="matrix(1.19249e-08 -1 -1 -1.19249e-08 564.314 302.685)" fill="#D9D9D9" fill-opacity="0.9"/>
<rect width="35.6861" height="35.6861" transform="matrix(1.19249e-08 -1 -1 -1.19249e-08 564.314 267)" fill="#D9D9D9" fill-opacity="0.5"/>
<rect width="35.6861" height="35.6861" transform="matrix(1.19249e-08 -1 -1 -1.19249e-08 600 267)" fill="#D9D9D9" fill-opacity="0.9"/>
<rect width="35.6861" height="35.6861" transform="matrix(1.19249e-08 -1 -1 -1.19249e-08 494.952 374.058)" fill="#D9D9D9" fill-opacity="0.9"/>
</g>
<path d="M325.568 250.625C325.756 251.217 326.024 252.086 326.348 253.191C326.995 255.401 327.864 258.553 328.746 262.318C330.493 269.778 332.288 279.626 332.531 289.31L312.733 301.486L313.124 302.395L332.343 297.239C331.884 303.084 330.661 308.565 328.296 313.086C322.722 323.74 315.836 329.197 308.461 331.014C301.071 332.835 293.085 331.029 285.268 326.939C277.45 322.849 271.411 317.319 268.693 310.21C265.981 303.114 266.538 294.347 272.112 283.692C274.875 278.412 279.596 273.66 285.162 269.498C290.724 265.338 297.101 261.789 303.141 258.903C309.178 256.018 314.868 253.801 319.049 252.306C321.139 251.559 322.851 250.992 324.039 250.612C324.633 250.422 325.097 250.279 325.411 250.183C325.416 250.182 325.42 250.18 325.425 250.178C325.465 250.303 325.514 250.452 325.568 250.625Z" stroke="#FF5031"/>
<path d="M326.532 249.181L326.624 249.2C326.594 249.338 326.559 249.506 326.514 249.702L326.513 249.704C325.99 252.066 324.502 258.452 322.049 266.621C321.934 266.997 321.824 267.37 321.706 267.748L321.705 267.751C320.375 272.103 318.786 276.91 316.931 281.857L316.93 281.858C316.467 283.1 315.996 284.319 315.517 285.513L315.514 285.522C315.374 285.89 315.229 286.256 315.081 286.615L315.08 286.619C313.041 291.687 310.93 296.328 308.748 300.542L308.194 301.6C301.738 313.787 294.721 322.197 287.253 326.778L287.201 326.693L287.159 326.62C295.431 321.543 302.345 312.101 307.938 301.55L307.939 301.551C308.124 301.21 308.315 300.856 308.497 300.495L308.498 300.496C310.868 295.927 313.002 291.169 314.898 286.457L315.344 285.347C317.815 279.114 319.874 273.002 321.524 267.622C321.643 267.241 321.757 266.859 321.867 266.484C324.529 257.675 326.045 250.982 326.441 249.161L326.532 249.181Z" fill="white" stroke="#FF5031"/>
<path d="M307.467 256.448C310.326 260.165 313.959 263.216 318.119 265.386V265.387C319.122 265.912 320.152 266.385 321.203 266.804V266.803C321.593 266.959 321.98 267.101 322.356 267.238L322.36 267.24C325.219 268.25 328.207 268.848 331.234 269.022C331.245 269.085 331.256 269.148 331.268 269.211C328.227 269.042 325.224 268.441 322.35 267.426L322.347 267.425L321.787 267.225C321.601 267.156 321.416 267.085 321.233 267.012L321.231 267.011L320.417 266.678C319.608 266.334 318.814 265.958 318.034 265.55L318.033 265.549C313.836 263.359 310.174 260.276 307.297 256.523C307.354 256.498 307.411 256.473 307.467 256.448Z" fill="white" stroke="#FF5031"/>
<path d="M297.273 261.499C298.009 266.424 299.869 271.116 302.714 275.21C305.698 279.504 309.677 283.012 314.31 285.436C314.412 285.489 314.53 285.549 314.649 285.605V285.606C315.017 285.799 315.392 285.98 315.772 286.152V286.153C321.288 288.705 327.411 289.643 333.432 288.864C333.433 288.925 333.435 288.987 333.436 289.049C327.408 289.824 321.28 288.892 315.752 286.351C315.388 286.18 315.026 286.004 314.661 285.82L314.653 285.816L314.225 285.598C309.634 283.196 305.681 279.735 302.695 275.501C299.774 271.361 297.862 266.598 297.103 261.592C297.159 261.561 297.216 261.53 297.273 261.499Z" fill="white" stroke="#FF5031"/>
<path d="M289.643 266.1C288.58 272.627 289.53 279.334 292.385 285.321C295.314 291.464 300.096 296.528 306.048 299.806L306.628 300.119C307.029 300.328 307.434 300.526 307.84 300.718L307.841 300.719C308.03 300.808 308.221 300.896 308.414 300.983L308.997 301.236C316.485 304.415 324.884 304.656 332.528 301.935C332.516 302.002 332.503 302.069 332.49 302.135C324.79 304.854 316.347 304.586 308.832 301.373C308.457 301.21 308.087 301.042 307.719 300.863L307.707 300.858L307.126 300.579C306.932 300.483 306.738 300.383 306.543 300.281H306.542C300.458 297.089 295.535 292.062 292.471 285.912C289.438 279.826 288.381 272.948 289.441 266.235C289.508 266.19 289.575 266.145 289.643 266.1Z" fill="white" stroke="#FF5031"/>
<path d="M79.0457 252.047C79.36 252.142 79.8236 252.286 80.4177 252.475C81.6062 252.855 83.3181 253.422 85.408 254.17C89.5884 255.665 95.2782 257.881 101.316 260.767C107.356 263.652 113.734 267.202 119.296 271.361C124.862 275.524 129.582 280.275 132.344 285.556C137.919 296.21 138.476 304.978 135.763 312.073C133.045 319.182 127.007 324.713 119.19 328.803C111.373 332.892 103.386 334.699 95.9958 332.878C88.6206 331.06 81.7361 325.604 76.1619 314.949C73.797 310.429 72.5723 304.948 72.114 299.102L91.3328 304.259L91.7244 303.35L71.9246 291.174C72.1678 281.489 73.9633 271.641 75.7107 264.182C76.5925 260.417 77.4615 257.265 78.1091 255.055C78.4329 253.95 78.7011 253.081 78.8884 252.488C78.943 252.316 78.9908 252.166 79.031 252.042C79.0359 252.043 79.0407 252.045 79.0457 252.047Z" stroke="#FF5031"/>
<path d="M78.0146 251.026C78.4112 252.848 79.9276 259.54 82.5898 268.348C82.6995 268.723 82.8129 269.105 82.9316 269.486V269.487C84.4787 274.531 86.3861 280.217 88.6543 286.044L89.1123 287.211L89.5586 288.321C91.4539 293.031 93.5875 297.786 95.957 302.355V302.356C96.1394 302.717 96.3319 303.072 96.5176 303.414C102.111 313.966 109.025 323.408 117.298 328.484L117.256 328.557L117.204 328.642C109.97 324.205 103.159 316.175 96.8721 304.6L96.2627 303.464L95.71 302.406C93.5276 298.192 91.4168 293.551 89.3779 288.483L89.376 288.479L89.1562 287.936C89.084 287.753 89.0124 287.57 88.9424 287.386L88.9395 287.377L88.2275 285.568C87.992 284.958 87.7582 284.343 87.5264 283.722V283.721L86.8428 281.873C85.2778 277.58 83.9165 273.423 82.7529 269.615L82.752 269.612L82.4092 268.485H82.4082C79.9545 260.317 78.4667 253.93 77.9434 251.568L77.9424 251.566C77.8979 251.37 77.8621 251.202 77.832 251.064L77.9258 251.045L78.0146 251.026Z" fill="white" stroke="#FF5031"/>
<path d="M97.1584 258.387C94.2817 262.14 90.62 265.223 86.4231 267.413V267.414C85.3842 267.957 84.3171 268.444 83.2268 268.875L83.2249 268.876C82.8579 269.022 82.4842 269.159 82.1106 269.289L82.1077 269.29C79.2334 270.305 76.2302 270.905 73.1887 271.075C73.2002 271.012 73.2116 270.949 73.2229 270.886C76.2495 270.712 79.2373 270.114 82.0969 269.103L82.1018 269.101C82.4769 268.965 82.8643 268.823 83.2532 268.667L83.2542 268.668C84.3056 268.249 85.3351 267.775 86.3381 267.251L86.3372 267.25C90.4977 265.08 94.1309 262.028 96.9895 258.311C97.0457 258.336 97.102 258.362 97.1584 258.387Z" fill="white" stroke="#FF5031"/>
<path d="M107.353 263.456C106.594 268.462 104.683 273.225 101.762 277.365C98.7755 281.599 94.8227 285.06 90.2319 287.462C90.084 287.539 89.9452 287.612 89.8052 287.679L89.7954 287.684C89.4311 287.868 89.0691 288.044 88.7046 288.215C83.1765 290.756 77.0485 291.688 71.02 290.913C71.0211 290.851 71.0228 290.789 71.0239 290.728C77.0436 291.507 83.1652 290.57 88.6812 288.019C89.0626 287.846 89.4379 287.662 89.8081 287.469C89.9264 287.413 90.0449 287.353 90.147 287.3C94.7799 284.876 98.7584 281.368 101.743 277.074C104.588 272.98 106.446 268.288 107.183 263.363C107.24 263.394 107.297 263.425 107.353 263.456Z" fill="white" stroke="#FF5031"/>
<path d="M115.015 268.098C116.075 274.811 115.019 281.69 111.987 287.776C108.923 293.926 103.998 298.953 97.9143 302.144C97.5244 302.348 97.1374 302.545 96.7502 302.722L96.7385 302.726C96.3702 302.906 95.9997 303.074 95.6243 303.237C88.1093 306.449 79.666 306.718 71.9661 303.999C71.9532 303.932 71.9403 303.866 71.928 303.799C79.5723 306.52 87.9717 306.278 95.4602 303.099C95.8522 302.935 96.2371 302.761 96.6165 302.583L96.6174 302.582C96.8201 302.486 97.0228 302.389 97.2249 302.289L97.8293 301.982C104.051 298.718 109.047 293.526 112.072 287.184C114.926 281.198 115.877 274.491 114.814 267.964C114.881 268.009 114.948 268.053 115.015 268.098Z" fill="white" stroke="#FF5031"/>
<path d="M170.073 286.315C170.779 286.541 171.795 286.878 173.037 287.322C175.521 288.21 178.901 289.527 182.488 291.241C186.076 292.956 189.861 295.062 193.158 297.528C196.459 299.997 199.243 302.804 200.868 305.91C204.167 312.217 204.482 317.375 202.893 321.531C201.299 325.701 197.75 328.962 193.122 331.384C188.494 333.805 183.791 334.861 179.457 333.793C175.137 332.728 171.079 329.528 167.779 323.221C166.426 320.636 165.702 317.507 165.414 314.151L176.58 317.146L176.971 316.237L165.285 309.051C165.441 303.342 166.497 297.543 167.529 293.138C168.053 290.901 168.569 289.028 168.954 287.716C169.146 287.059 169.306 286.544 169.417 286.192C169.425 286.167 169.433 286.142 169.44 286.118C169.609 286.17 169.821 286.235 170.073 286.315Z" stroke="#FF5031"/>
<path d="M178.974 315.986L179.304 316.617C183.176 323.927 187.405 329 191.937 331.758C192.003 331.799 192.069 331.836 192.135 331.877L192.32 331.57L192.494 331.272C187.528 328.331 183.36 322.682 179.981 316.307C179.87 316.102 179.757 315.895 179.651 315.684C178.244 312.972 176.977 310.148 175.851 307.349C175.762 307.133 175.675 306.913 175.587 306.692C174.12 302.991 172.896 299.36 171.916 296.163C171.845 295.938 171.778 295.71 171.712 295.486C170.075 290.068 169.166 285.999 168.972 285.094C168.946 284.985 168.934 284.923 168.931 284.909L168.59 284.98L168.585 284.979L168.241 285.051C168.245 285.065 168.285 285.271 168.37 285.648C168.683 287.059 169.571 290.869 171.035 295.741C171.102 295.961 171.169 296.188 171.239 296.414C172.032 299.009 172.98 301.877 174.087 304.829C174.364 305.571 174.645 306.298 174.931 307.012C175.015 307.234 175.103 307.454 175.192 307.67C176.409 310.696 177.67 313.468 178.974 315.986Z" fill="#FF5031"/>
<path d="M165.6 296.799C165.559 297.031 165.516 297.268 165.471 297.51C167.438 297.439 169.383 297.069 171.239 296.413C171.465 296.335 171.692 296.252 171.916 296.163C172.575 295.903 173.219 295.608 173.847 295.28C176.496 293.897 178.794 291.928 180.565 289.522C180.343 289.424 180.125 289.327 179.907 289.23C178.211 291.493 176.028 293.347 173.521 294.655C172.932 294.963 172.329 295.24 171.712 295.486C171.486 295.577 171.259 295.66 171.035 295.741C169.285 296.359 167.454 296.716 165.6 296.799Z" fill="#FF5031"/>
<path d="M164.251 308.554C164.244 308.793 164.241 309.029 164.237 309.265C167.966 309.797 171.769 309.243 175.192 307.67C175.412 307.566 175.631 307.46 175.851 307.349C175.94 307.306 176.027 307.26 176.115 307.215C178.89 305.763 181.279 303.671 183.084 301.111C184.89 298.552 186.059 295.6 186.496 292.499C186.277 292.375 186.055 292.256 185.834 292.137C185.449 295.178 184.334 298.08 182.585 300.597C180.836 303.113 178.504 305.169 175.788 306.59C175.723 306.624 175.654 306.66 175.587 306.692C175.371 306.804 175.153 306.911 174.931 307.011C171.597 308.554 167.885 309.09 164.251 308.554Z" fill="#FF5031"/>
<path d="M164.697 316.218C164.743 316.489 164.787 316.756 164.843 317.021C169.54 318.725 174.709 318.581 179.304 316.617C179.53 316.518 179.755 316.416 179.98 316.307C180.218 316.198 180.454 316.079 180.688 315.956C184.366 314.027 187.342 310.988 189.194 307.271C191.046 303.554 191.68 299.348 191.005 295.25C190.738 295.067 190.467 294.891 190.194 294.712C191.003 298.75 190.482 302.941 188.71 306.658C186.937 310.376 184.008 313.419 180.361 315.332C180.127 315.454 179.89 315.571 179.651 315.684C179.427 315.789 179.202 315.891 178.974 315.986C174.426 317.917 169.305 318 164.697 316.218Z" fill="#FF5031"/>
<path d="M401.497 205.93L401.447 205.925C392.024 204.369 381.556 204.37 369.445 205.927H369.44C369.138 205.931 368.839 205.874 368.558 205.762C368.278 205.649 368.023 205.482 367.807 205.27C367.592 205.058 367.421 204.805 367.303 204.527C367.186 204.248 367.125 203.95 367.124 203.647V192.68C367.124 192.075 367.365 191.494 367.793 191.067C368.221 190.639 368.801 190.398 369.406 190.397C380.071 189.007 390.871 189.008 401.535 190.4H401.54C402.138 190.409 402.709 190.653 403.128 191.08C403.547 191.507 403.781 192.081 403.779 192.68V203.647C403.779 204.252 403.538 204.833 403.11 205.26C402.682 205.688 402.102 205.929 401.497 205.93Z" fill="white"/>
<path d="M401.497 205.93L401.447 205.925C392.024 204.369 381.556 204.37 369.445 205.927H369.44C369.138 205.931 368.839 205.874 368.558 205.762C368.278 205.649 368.023 205.482 367.807 205.27C367.592 205.058 367.421 204.805 367.303 204.527C367.186 204.248 367.125 203.95 367.124 203.647V192.68C367.124 192.075 367.365 191.494 367.793 191.067C368.221 190.639 368.801 190.398 369.406 190.397C380.071 189.007 390.871 189.008 401.535 190.4H401.54C402.138 190.409 402.709 190.653 403.128 191.08C403.547 191.507 403.781 192.081 403.779 192.68V203.647C403.779 204.252 403.538 204.833 403.11 205.26C402.682 205.688 402.102 205.929 401.497 205.93ZM385.044 189.978C379.828 189.969 374.617 190.315 369.448 191.016C369.227 191.012 369.007 191.053 368.801 191.134C368.596 191.216 368.408 191.338 368.25 191.493C368.091 191.648 367.965 191.832 367.879 192.036C367.792 192.239 367.746 192.458 367.745 192.68V203.647C367.745 204.088 367.92 204.51 368.232 204.821C368.543 205.133 368.965 205.308 369.406 205.308C381.527 203.747 392.045 203.747 401.522 205.308C401.958 205.301 402.374 205.123 402.68 204.813C402.986 204.502 403.158 204.084 403.158 203.647V192.68C403.158 192.239 402.983 191.817 402.671 191.506C402.36 191.194 401.938 191.019 401.497 191.019C396.039 190.334 390.545 189.987 385.044 189.978Z" fill="#47A138"/>
<path d="M385.452 201.989C387.854 201.989 389.801 200.042 389.801 197.64C389.801 195.238 387.854 193.291 385.452 193.291C383.05 193.291 381.103 195.238 381.103 197.64C381.103 200.042 383.05 201.989 385.452 201.989Z" fill="#47A138"/>
<path d="M374.269 195.368H370.541C370.294 195.368 370.057 195.269 369.882 195.095C369.707 194.92 369.609 194.683 369.609 194.436V193.193C369.609 192.946 369.707 192.709 369.882 192.535C370.057 192.36 370.294 192.262 370.541 192.261H374.269C374.516 192.262 374.752 192.36 374.927 192.535C375.102 192.709 375.2 192.946 375.2 193.193V194.436C375.2 194.683 375.102 194.92 374.927 195.095C374.752 195.269 374.516 195.368 374.269 195.368Z" fill="#47A138"/>
<path d="M400.363 204.066H396.635C396.388 204.066 396.151 203.967 395.976 203.793C395.802 203.618 395.703 203.381 395.703 203.134V201.891C395.703 201.644 395.802 201.407 395.976 201.233C396.151 201.058 396.388 200.96 396.635 200.959H400.363C400.61 200.96 400.847 201.058 401.021 201.233C401.196 201.407 401.294 201.644 401.295 201.891V203.134C401.294 203.381 401.196 203.618 401.021 203.793C400.847 203.967 400.61 204.066 400.363 204.066Z" fill="#47A138"/>
<path d="M396.194 201.394L396.149 201.37C388.073 196.272 378.429 192.202 366.666 188.927L366.661 188.925C366.381 188.811 366.127 188.642 365.913 188.429C365.698 188.216 365.528 187.963 365.412 187.684C365.296 187.405 365.237 187.106 365.237 186.804C365.237 186.502 365.297 186.202 365.413 185.924L369.678 175.819C369.914 175.262 370.362 174.821 370.922 174.593C371.483 174.366 372.111 174.369 372.669 174.604C383.035 177.47 392.984 181.671 402.268 187.101L402.272 187.103C402.82 187.344 403.25 187.791 403.471 188.347C403.691 188.903 403.683 189.524 403.449 190.074L399.184 200.179C398.948 200.736 398.5 201.177 397.94 201.404C397.379 201.632 396.751 201.628 396.194 201.394Z" fill="white"/>
<path d="M396.194 201.394L396.149 201.37C388.073 196.272 378.429 192.202 366.666 188.927L366.661 188.925C366.381 188.811 366.127 188.642 365.913 188.429C365.698 188.216 365.528 187.963 365.412 187.684C365.296 187.405 365.237 187.106 365.237 186.804C365.237 186.502 365.297 186.202 365.413 185.924L369.678 175.819C369.914 175.262 370.362 174.821 370.922 174.593C371.483 174.366 372.111 174.369 372.669 174.604C383.035 177.47 392.984 181.671 402.268 187.101L402.272 187.103C402.82 187.344 403.25 187.791 403.471 188.347C403.691 188.903 403.683 189.524 403.449 190.074L399.184 200.179C398.948 200.736 398.5 201.177 397.94 201.404C397.379 201.632 396.751 201.628 396.194 201.394ZM387.239 180.299C382.437 178.262 377.502 176.555 372.467 175.19C372.265 175.101 372.046 175.053 371.825 175.048C371.604 175.043 371.384 175.083 371.178 175.164C370.972 175.245 370.784 175.366 370.625 175.52C370.465 175.674 370.338 175.857 370.251 176.061L365.986 186.165C365.815 186.571 365.812 187.028 365.978 187.436C366.144 187.844 366.464 188.17 366.87 188.341C378.644 191.617 388.334 195.707 396.458 200.831C396.862 200.994 397.315 200.992 397.717 200.824C398.12 200.657 398.441 200.339 398.611 199.937L402.877 189.833C403.047 189.427 403.05 188.97 402.884 188.562C402.719 188.154 402.398 187.828 401.992 187.657C397.23 184.903 392.303 182.446 387.239 180.299V180.299Z" fill="#47A138"/>
<path d="M384.635 191.866C387.037 191.866 388.984 189.918 388.984 187.517C388.984 185.115 387.037 183.168 384.635 183.168C382.233 183.168 380.286 185.115 380.286 187.517C380.286 189.918 382.233 191.866 384.635 191.866Z" fill="#47A138"/>
<path d="M375.215 181.074L371.781 179.624C371.554 179.528 371.374 179.346 371.281 179.117C371.188 178.888 371.189 178.631 371.285 178.404L371.768 177.259C371.865 177.031 372.047 176.851 372.276 176.758C372.505 176.665 372.761 176.667 372.989 176.763L376.423 178.212C376.651 178.309 376.831 178.491 376.924 178.72C377.017 178.949 377.015 179.206 376.92 179.433L376.436 180.578C376.34 180.806 376.157 180.986 375.928 181.079C375.7 181.172 375.443 181.17 375.215 181.074Z" fill="#47A138"/>
<path d="M395.873 199.235L392.438 197.785C392.211 197.689 392.031 197.506 391.938 197.278C391.845 197.049 391.846 196.792 391.942 196.565L392.425 195.42C392.522 195.192 392.704 195.012 392.933 194.919C393.162 194.826 393.419 194.828 393.646 194.924L397.081 196.373C397.308 196.47 397.488 196.652 397.581 196.881C397.674 197.11 397.673 197.366 397.577 197.594L397.094 198.739C396.997 198.967 396.815 199.147 396.586 199.24C396.357 199.333 396.1 199.331 395.873 199.235Z" fill="#47A138"/>
<path d="M405.8 185.677L405.624 185.986L405.858 186.253C406.411 186.886 406.818 187.633 407.051 188.44C407.285 189.247 407.338 190.095 407.208 190.925C407.078 191.755 406.768 192.547 406.299 193.244C405.83 193.941 405.214 194.527 404.495 194.96L404.492 194.962C403.284 195.7 401.847 195.969 400.454 195.718C399.061 195.467 397.809 194.714 396.934 193.602C396.059 192.489 395.623 191.095 395.708 189.682C395.792 188.269 396.392 186.937 397.394 185.937L397.455 185.876L397.492 185.798L406.047 167.865L416.341 167.2L405.8 185.677Z" stroke="black"/>
<path d="M488.946 297.97V326.35H482.271L478.771 297.97H488.946Z" stroke="black"/>
<path d="M491.389 334.233L466.829 334.232V333.921C466.829 331.386 467.837 328.955 469.629 327.162C471.422 325.369 473.853 324.362 476.389 324.362H476.389L491.389 324.362L491.389 334.233Z" fill="#2F2E41"/>
<path d="M436.759 297.97V326.35H430.084L426.583 297.97H436.759Z" stroke="black"/>
<path d="M439.201 334.233L414.641 334.232V333.921C414.641 331.386 415.649 328.955 417.441 327.162C419.234 325.369 421.665 324.362 424.201 324.362H424.201L439.201 324.362L439.201 334.233Z" fill="#2F2E41"/>
<path d="M417.672 167.47C417.672 167.47 415.577 197.305 419.704 212.33C423.83 227.356 424.567 318.223 424.567 318.223H438.398L450.385 194.534L478.021 318.659L491.195 317.753L483.971 171.488L417.672 167.47Z" fill="#2F2E41"/>
<path d="M478.255 66.8974L467.682 59.1817L449.964 63.0396L445.168 74.4353L436.904 78.5327C434.187 79.88 431.838 81.8668 430.058 84.3226C428.278 86.7783 427.121 89.6295 426.686 92.6312L414.88 174.159L483.971 171.489L492.335 75.4733C492.422 74.4703 492.307 73.46 491.997 72.5021C491.687 71.5443 491.188 70.6583 490.53 69.8968C489.872 69.1352 489.067 68.5134 488.164 68.0683C487.261 67.6232 486.278 67.3638 485.273 67.3053L478.255 66.8974Z" fill="#CBCBCB"/>
<path d="M432.532 84.9008L426.151 93.5031L398.357 178.274L411.386 183.491L432.246 143.989L432.532 84.9008Z" fill="#CBCBCB"/>
<path d="M455.378 12.4027C466.781 12.4027 476.025 21.6465 476.025 33.0492C476.025 44.4522 466.781 53.6967 455.378 53.6967C443.975 53.6965 434.731 44.452 434.731 33.0492C434.732 21.6466 443.975 12.4029 455.378 12.4027Z" stroke="black"/>
<path d="M455.664 55.1534C464.186 55.1534 471.095 48.2444 471.095 39.7219C471.095 31.1993 464.186 24.2904 455.664 24.2904C447.141 24.2904 440.232 31.1993 440.232 39.7219C440.232 48.2444 447.141 55.1534 455.664 55.1534Z" fill="#389429"/>
<path d="M453.663 0.5C460.016 0.5 465.166 5.64957 465.166 12.002C465.166 18.3545 460.016 23.5049 453.663 23.5049C447.311 23.5047 442.161 18.3544 442.161 12.002C442.161 5.64968 447.311 0.500171 453.663 0.5Z" stroke="black"/>
<path d="M471.475 27.4422C471.413 30.5239 470.582 33.4715 469.153 35.6732C467.725 37.8748 465.81 39.1615 463.804 39.2662C463.928 39.2777 464.05 39.2999 464.175 39.3024C466.246 39.3434 468.256 38.1184 469.764 35.8969C471.272 33.6755 472.155 30.6395 472.218 27.4569C472.281 24.2744 471.519 21.2059 470.1 18.9265C468.681 16.6471 466.72 15.3435 464.65 15.3026C464.525 15.3001 464.402 15.3175 464.278 15.3241C466.277 15.508 468.141 16.8695 469.481 19.1259C470.821 21.3823 471.535 24.3605 471.475 27.4422Z" fill="black"/>
<path opacity="0.1" d="M483.414 89.7829L479.109 132.704L463.904 162.672L483.414 89.7829Z" fill="black"/>
<path d="M28.2685 221.885H24.5408V224.991H28.2685V221.885Z" fill="#F0F0F0"/>
<path d="M380.867 224.991H373.521V221.885H380.867V224.991ZM366.176 224.991H358.829V221.885H366.176V224.991ZM351.484 224.991H344.138V221.885H351.484V224.991ZM336.792 224.991H329.446V221.885H336.792V224.991ZM322.101 224.991H314.755V221.885H322.101V224.991ZM307.409 224.991H300.063V221.885H307.409L307.409 224.991ZM292.718 224.991H285.372V221.885H292.718V224.991ZM278.026 224.991H270.68V221.885H278.026V224.991ZM263.334 224.991H255.989V221.885H263.334V224.991ZM248.643 224.991H241.297V221.885H248.643L248.643 224.991ZM233.951 224.991H226.605V221.885H233.951L233.951 224.991ZM219.259 224.991H211.914V221.885H219.259L219.259 224.991ZM204.568 224.991H197.222V221.885H204.568L204.568 224.991ZM189.876 224.991H182.531V221.885H189.876L189.876 224.991ZM175.185 224.991H167.839V221.885H175.185L175.185 224.991ZM160.493 224.991H153.147V221.885H160.493L160.493 224.991ZM145.801 224.991H138.456V221.885H145.802L145.801 224.991ZM131.11 224.991H123.764V221.885H131.11L131.11 224.991ZM116.418 224.991H109.073V221.885H116.418L116.418 224.991ZM101.726 224.991H94.381V221.885H101.727L101.726 224.991ZM87.0349 224.991H79.6894V221.885H87.035L87.0349 224.991ZM72.3433 224.991H64.9976V221.885H72.3435L72.3433 224.991ZM57.6518 224.991H50.3061V221.885H57.652L57.6518 224.991ZM42.9602 224.991H35.6145V221.885H42.9604L42.9602 224.991Z" fill="#F8F8F8"/>
<path d="M28.2685 142.981H24.5408V146.087H28.2685V142.981Z" fill="#F0F0F0"/>
<path d="M380.65 146.379H373.305V143.272H380.65V146.379ZM365.959 146.379H358.613V143.272H365.959V146.379ZM351.267 146.379H343.922V143.272H351.267V146.379ZM336.576 146.379H329.23V143.272H336.576V146.379ZM321.884 146.379H314.538V143.272H321.884V146.379ZM307.192 146.379H299.847V143.272H307.192L307.192 146.379ZM292.501 146.379H285.155V143.272H292.501V146.379ZM277.809 146.379H270.464V143.272H277.809V146.379ZM263.118 146.379H255.772V143.272H263.118V146.379ZM248.426 146.379H241.08V143.272H248.426L248.426 146.379ZM233.734 146.379H226.389V143.272H233.735L233.734 146.379ZM219.043 146.379H211.697V143.272H219.043L219.043 146.379ZM204.351 146.379H197.006V143.272H204.351L204.351 146.379ZM189.66 146.379H182.314V143.272H189.66L189.66 146.379ZM174.968 146.379H167.622V143.272H174.968L174.968 146.379ZM160.276 146.379H152.931V143.272H160.277L160.276 146.379ZM145.585 146.379H138.239V143.272H145.585L145.585 146.379ZM130.893 146.379H123.548V143.272H130.893L130.893 146.379ZM116.201 146.379H108.856V143.272H116.202L116.201 146.379ZM101.51 146.379H94.1644V143.272H101.51L101.51 146.379ZM86.8183 146.379H79.4729V143.272H86.8185L86.8183 146.379ZM72.1268 146.379H64.7811V143.272H72.127L72.1268 146.379ZM57.4352 146.379H50.0895V143.272H57.4354L57.4352 146.379ZM42.7437 146.379H35.3979V143.272H42.7439L42.7437 146.379Z" fill="#F8F8F8"/>
<path d="M380.65 62.7159H373.305V59.6095H380.65V62.7159ZM365.959 62.7159H358.613V59.6095H365.959V62.7159ZM351.267 62.7159H343.922V59.6095H351.267V62.7159ZM336.576 62.7159H329.23V59.6095H336.576V62.7159ZM321.884 62.7159H314.538V59.6095H321.884V62.7159ZM307.192 62.7159H299.847V59.6095H307.192L307.192 62.7159ZM292.501 62.7159H285.155V59.6095H292.501V62.7159ZM277.809 62.7159H270.464V59.6095H277.809V62.7159ZM263.118 62.7159H255.772V59.6095H263.118V62.7159ZM248.426 62.7159H241.08V59.6095H248.426L248.426 62.7159ZM233.734 62.7159H226.389V59.6095H233.735L233.734 62.7159ZM219.043 62.7159H211.697V59.6095H219.043L219.043 62.7159ZM204.351 62.7159H197.006V59.6095H204.351L204.351 62.7159ZM189.66 62.7159H182.314V59.6095H189.66L189.66 62.7159ZM174.968 62.7159H167.622V59.6095H174.968L174.968 62.7159ZM160.276 62.7159H152.931V59.6095H160.277L160.276 62.7159ZM145.585 62.7159H138.239V59.6095H145.585L145.585 62.7159ZM130.893 62.7159H123.548V59.6095H130.893L130.893 62.7159ZM116.201 62.7159H108.856V59.6095H116.202L116.201 62.7159ZM101.51 62.7159H94.1644V59.6095H101.51L101.51 62.7159ZM86.8183 62.7159H79.4729V59.6095H86.8185L86.8183 62.7159ZM72.1268 62.7159H64.7811V59.6095H72.127L72.1268 62.7159ZM57.4352 62.7159H50.0895V59.6095H57.4354L57.4352 62.7159ZM42.7437 62.7159H35.3979V59.6095H42.7439L42.7437 62.7159Z" fill="#F8F8F8"/>
<path d="M146.002 222.816H115.559V334.648H146.002V222.816Z" fill="#3F3D56"/>
<path d="M151.594 222.816H121.151V334.648H151.594V222.816Z" fill="#47A138"/>
<path d="M218.071 143.913H187.628V334.648H218.071V143.913Z" fill="#3F3D56"/>
<path d="M223.663 143.913H193.22V334.648H223.663V143.913Z" fill="#47A138"/>
<path d="M290.141 65.0096H259.698V334.648H290.141V65.0096Z" fill="#3F3D56"/>
<path d="M295.732 65.0096H265.289V334.648H295.732V65.0096Z" fill="#47A138"/>
<path d="M24.8516 151.99C28.9691 151.99 32.307 148.652 32.307 144.534C32.307 140.417 28.9691 137.079 24.8516 137.079C20.734 137.079 17.3961 140.417 17.3961 144.534C17.3961 148.652 20.734 151.99 24.8516 151.99Z" fill="#F8F8F8"/>
<path d="M24.8516 68.3269C28.9691 68.3269 32.307 64.989 32.307 60.8715C32.307 56.7539 28.9691 53.416 24.8516 53.416C20.734 53.416 17.3961 56.7539 17.3961 60.8715C17.3961 64.989 20.734 68.3269 24.8516 68.3269Z" fill="#F8F8F8"/>
<path d="M24.8516 230.893C28.9691 230.893 32.307 227.555 32.307 223.438C32.307 219.32 28.9691 215.982 24.8516 215.982C20.734 215.982 17.3961 219.32 17.3961 223.438C17.3961 227.555 20.734 230.893 24.8516 230.893Z" fill="#F8F8F8"/>
<path d="M551.702 333.952H0V335.344H551.702V333.952Z" fill="#47A138"/>
<path d="M465.49 192.261L465.439 192.257C456.016 190.701 445.549 190.702 433.438 192.259H433.433C433.131 192.263 432.831 192.206 432.551 192.094C432.271 191.981 432.015 191.814 431.8 191.602C431.585 191.39 431.413 191.137 431.296 190.859C431.179 190.58 431.118 190.281 431.116 189.979V179.012C431.117 178.406 431.358 177.826 431.785 177.399C432.213 176.971 432.793 176.73 433.398 176.729C444.063 175.339 454.864 175.34 465.528 176.732H465.532C466.131 176.741 466.701 176.985 467.12 177.412C467.54 177.838 467.774 178.413 467.772 179.012V189.979C467.771 190.584 467.531 191.164 467.103 191.592C466.675 192.02 466.095 192.261 465.49 192.261Z" fill="white"/>
<path d="M465.49 192.261L465.439 192.257C456.016 190.701 445.549 190.702 433.438 192.259H433.433C433.131 192.263 432.831 192.206 432.551 192.094C432.271 191.981 432.015 191.814 431.8 191.602C431.585 191.39 431.413 191.137 431.296 190.859C431.179 190.58 431.118 190.281 431.116 189.979V179.012C431.117 178.406 431.358 177.826 431.785 177.399C432.213 176.971 432.793 176.73 433.398 176.729C444.063 175.339 454.864 175.34 465.528 176.732H465.532C466.131 176.741 466.701 176.985 467.12 177.412C467.54 177.838 467.774 178.413 467.772 179.012V189.979C467.771 190.584 467.531 191.164 467.103 191.592C466.675 192.02 466.095 192.261 465.49 192.261ZM449.037 176.31C443.821 176.3 438.61 176.647 433.441 177.348C433.219 177.344 433 177.384 432.794 177.466C432.588 177.548 432.401 177.67 432.242 177.825C432.084 177.979 431.958 178.164 431.871 178.368C431.785 178.571 431.739 178.79 431.737 179.012V189.979C431.738 190.42 431.913 190.842 432.225 191.153C432.536 191.465 432.958 191.64 433.398 191.64C445.519 190.079 456.038 190.079 465.514 191.64C465.95 191.633 466.366 191.455 466.672 191.144C466.979 190.834 467.15 190.415 467.151 189.979V179.012C467.15 178.571 466.975 178.149 466.664 177.838C466.352 177.526 465.93 177.351 465.49 177.351C460.032 176.666 454.537 176.318 449.037 176.31Z" fill="#47A138"/>
<path d="M449.444 188.321C451.846 188.321 453.793 186.374 453.793 183.972C453.793 181.57 451.846 179.623 449.444 179.623C447.042 179.623 445.095 181.57 445.095 183.972C445.095 186.374 447.042 188.321 449.444 188.321Z" fill="#47A138"/>
<path d="M438.261 181.7H434.533C434.286 181.699 434.049 181.601 433.875 181.426C433.7 181.252 433.602 181.015 433.601 180.768V179.525C433.602 179.278 433.7 179.041 433.875 178.867C434.049 178.692 434.286 178.594 434.533 178.593H438.261C438.508 178.594 438.745 178.692 438.92 178.867C439.094 179.041 439.193 179.278 439.193 179.525V180.768C439.193 181.015 439.094 181.252 438.92 181.426C438.745 181.601 438.508 181.699 438.261 181.7Z" fill="#47A138"/>
<path d="M464.355 190.398H460.627C460.38 190.397 460.143 190.299 459.969 190.124C459.794 189.95 459.696 189.713 459.695 189.466V188.223C459.696 187.976 459.794 187.739 459.969 187.565C460.143 187.39 460.38 187.292 460.627 187.291H464.355C464.602 187.292 464.839 187.39 465.014 187.565C465.188 187.739 465.287 187.976 465.287 188.223V189.466C465.287 189.713 465.188 189.95 465.014 190.124C464.839 190.299 464.602 190.397 464.355 190.398Z" fill="#47A138"/>
<path d="M480.292 161.016L470.526 178.32L470.484 178.395L470.469 178.48C470.226 179.874 469.479 181.13 468.372 182.011C467.264 182.892 465.872 183.336 464.458 183.259C463.045 183.182 461.709 182.588 460.704 181.592C459.699 180.596 459.094 179.265 459.004 177.853L459.003 177.85L458.991 177.535C458.98 176.802 459.109 176.072 459.373 175.386C459.674 174.602 460.143 173.893 460.748 173.31C461.352 172.727 462.079 172.284 462.874 172.011C463.668 171.739 464.513 171.643 465.348 171.733L465.702 171.771L465.854 171.449L474.924 152.205L480.292 161.016Z" stroke="black"/>
<path d="M484.244 72.8393L488.143 67.7547C488.143 67.7547 497.642 65.8199 499.256 78.8678L498.24 136.874L477.423 169.639L463.903 166.187L481.58 127.265L484.244 72.8393Z" fill="#CBCBCB"/>
<path d="M458.422 40.6259C458.703 40.5026 458.961 40.3052 459.176 40.047C459.319 39.8629 459.427 39.642 459.495 39.3998C459.562 39.1575 459.586 38.8998 459.565 38.6446C459.553 38.4627 459.508 38.2868 459.433 38.1305C459.358 37.9742 459.254 37.8419 459.132 37.7438C458.813 37.4983 458.392 37.5075 457.967 37.7545L457.918 33.4479L457.572 33.4541L457.63 38.5169L457.893 38.3009C458.198 38.0508 458.636 37.8695 458.951 38.1123C459.029 38.1766 459.094 38.2626 459.141 38.3635C459.188 38.4644 459.216 38.5775 459.222 38.6941C459.237 38.8842 459.218 39.076 459.169 39.2565C459.119 39.4369 459.038 39.6018 458.933 39.7398C458.559 40.2051 458.004 40.361 457.372 40.5036L457.433 40.9294C457.769 40.8654 458.1 40.7639 458.422 40.6259Z" fill="black"/>
<path d="M464.412 34.4107L461.115 34.91L461.208 35.5221L464.505 35.0228L464.412 34.4107Z" fill="black"/>
<path d="M447.559 34.4107L450.856 34.91L450.763 35.5221L447.466 35.0228L447.559 34.4107Z" fill="black"/>
</svg>
