<svg width="146" height="33" viewBox="0 0 146 33" fill="none" xmlns="http://www.w3.org/2000/svg">
<path d="M33.1492 26.4058L35.8771 6.90871C37.3968 6.75741 39.5154 6.68176 42.2331 6.68176C44.6153 6.68176 46.265 7.06001 47.1823 7.81308C48.0996 8.56614 48.4214 9.9244 48.1373 11.881C47.9319 13.2943 47.528 14.3499 46.929 15.0445C46.3301 15.7426 45.4367 16.1483 44.2559 16.2584L44.2285 16.3994C46.8161 16.6057 47.8669 18.3594 47.3774 21.657C47.0762 23.6171 46.4396 24.9341 45.4641 25.6115C44.4886 26.2889 42.8765 26.6293 40.6278 26.6293C37.3489 26.6328 34.8571 26.5571 33.1492 26.4058ZM36.2159 24.2051L40.2102 24.2326C41.747 24.2326 42.8252 24.0125 43.4447 23.5689C44.0642 23.1253 44.4681 22.2554 44.6529 20.9556C44.8412 19.5629 44.694 18.6242 44.2183 18.1428C43.7391 17.6613 42.7431 17.4138 41.2234 17.3931H37.1743L36.2159 24.2051ZM37.4823 15.2165H41.3637C42.7123 15.2165 43.6843 14.9895 44.2764 14.5391C44.8686 14.0886 45.2553 13.2393 45.4436 11.9945C45.6113 10.8081 45.4607 10.0276 44.9918 9.64931C44.5229 9.2745 43.5577 9.08537 42.0962 9.08537H38.3278L37.4823 15.2165Z" fill="white"/>
<path d="M60.377 12.6168H63.2179C62.2047 17.1008 60.8836 20.8971 59.2509 24.0056C57.7894 26.7944 56.3382 28.7716 54.9041 29.9407C53.47 31.1099 51.7586 31.8629 49.77 32.1999L49.2634 30.2502C50.4648 29.9682 51.5122 29.5453 52.4123 28.9779C53.3125 28.414 54.175 27.5543 54.9999 26.4058H53.7335C53.3022 26.4058 52.936 26.2889 52.6382 26.0516C52.337 25.8178 52.1488 25.4911 52.0769 25.075L49.4346 12.6134H52.3062L54.3872 23.7752C54.442 24.095 54.6303 24.2566 54.9486 24.2566H56.3279C56.4032 24.126 56.5059 23.93 56.636 23.679C56.766 23.4245 56.8516 23.2594 56.8893 23.1838C58.539 19.7383 59.7027 16.2171 60.377 12.6168Z" fill="white"/>
<path d="M68.8139 14.735L67.7152 22.4788C67.6228 23.1391 67.6809 23.5861 67.8966 23.8199C68.1122 24.0572 68.5469 24.1741 69.2041 24.1741H71.2577L71.3706 26.2923C70.5458 26.5364 69.4779 26.6602 68.1635 26.6602C66.9451 26.6602 66.0688 26.3198 65.5349 25.6424C65.001 24.965 64.8161 23.9953 64.9873 22.7333L66.1133 14.735H63.6113L63.8646 12.7578L66.4248 12.6168L67.0169 8.57642H69.6901L69.1288 12.6168H73.349L73.0683 14.735H68.8139Z" fill="white"/>
<path d="M84.651 24.1191L84.8187 25.9553C83.4873 26.4814 81.6013 26.7462 79.1644 26.7462C76.8198 26.7462 75.1974 26.1307 74.2973 24.8962C73.3971 23.6617 73.1164 21.7464 73.4518 19.1468C73.8078 16.4922 74.5334 14.6766 75.6321 13.7069C76.7274 12.7372 78.5346 12.2523 81.0469 12.2523C83.1861 12.2523 84.6373 12.6306 85.4074 13.3836C86.1775 14.1367 86.4582 15.2474 86.2528 16.7191C86.0269 18.0567 85.5032 19.023 84.6784 19.6145C83.8535 20.2093 82.5871 20.5704 80.8826 20.7011L76.1284 21.124C76.1079 22.4238 76.3817 23.3041 76.943 23.7649C77.5043 24.2257 78.3874 24.4561 79.5854 24.4561C80.862 24.4561 82.5494 24.346 84.651 24.1191ZM76.2961 19.0883L80.8826 18.6654C81.7451 18.6104 82.3749 18.4247 82.7685 18.1152C83.1621 17.8057 83.4154 17.2624 83.5283 16.4887C83.6413 15.605 83.4941 15.0583 83.0937 14.8485C82.6898 14.6422 81.8717 14.539 80.6327 14.539C79.2089 14.539 78.1992 14.8347 77.6104 15.4296C77.0149 16.0211 76.5768 17.2418 76.2961 19.0883Z" fill="white"/>
<path d="M92.5538 6.62671L91.794 12.3349C91.6263 13.5796 91.3799 14.6319 91.0615 15.4984C91.9617 14.594 92.9509 13.8307 94.029 13.2083C95.1072 12.5859 96.1066 12.2764 97.0239 12.2764C98.1123 12.2764 98.9475 12.4793 99.5259 12.885C100.108 13.2908 100.519 14.0439 100.765 15.1442C101.008 16.2446 100.97 17.7576 100.652 19.6798C100.447 21.2237 100.156 22.4823 99.7792 23.452C99.4027 24.4217 98.9167 25.1438 98.3177 25.6149C97.7187 26.086 97.1095 26.3955 96.49 26.5468C95.8705 26.6981 95.073 26.7737 94.1009 26.7737C91.8145 26.7737 89.5076 26.4333 87.1802 25.7559L89.8533 6.62671H92.5538ZM91.0068 17.6476L90.0792 24.4286C91.4278 24.4836 92.4306 24.5145 93.0878 24.5145C94.8676 24.5145 96.0416 24.2291 96.6029 23.6514C97.1643 23.0772 97.5955 21.688 97.8967 19.4838C98.1603 17.4309 98.1876 16.1105 97.9823 15.5259C97.7769 14.9413 97.243 14.6491 96.3804 14.6491C95.049 14.6525 93.2589 15.6497 91.0068 17.6476Z" fill="white"/>
<path d="M114.213 26.4058H112.074L112.187 23.8612C110.537 25.7834 108.569 26.7428 106.279 26.7428C104.609 26.7428 103.486 26.1961 102.904 25.1026C102.322 24.0091 102.22 22.0869 102.596 19.3394C102.801 17.8126 103.092 16.5644 103.469 15.5947C103.845 14.625 104.342 13.9029 104.961 13.4318C105.581 12.9607 106.217 12.6444 106.875 12.4862C107.532 12.328 108.374 12.2455 109.407 12.2455C111.639 12.2455 113.881 12.4896 116.13 12.9814L114.213 26.4058ZM112.159 21.4335L113.145 14.5941C111.42 14.5563 110.455 14.5391 110.249 14.5391C109.274 14.5391 108.535 14.5872 108.028 14.68C107.521 14.7729 107.076 15.0136 106.693 15.4022C106.31 15.7873 106.026 16.2824 105.848 16.8842C105.67 17.486 105.495 18.3731 105.327 19.5388C105.064 21.5917 105.033 22.9122 105.228 23.4933C105.427 24.0779 105.964 24.3701 106.847 24.3701C107.71 24.3701 108.552 24.1294 109.38 23.648C110.198 23.1735 111.129 22.4342 112.159 21.4335Z" fill="white"/>
<path d="M121.301 12.6168L121.161 15.5844C123.636 13.363 125.802 12.2489 127.657 12.2489C128.821 12.2489 129.701 12.5825 130.3 13.253C130.899 13.9235 131.104 14.8795 130.919 16.1208L129.458 26.4058H126.757L128.078 16.7982C128.191 15.9317 128.157 15.3437 127.979 15.0308C127.801 14.7213 127.411 14.5631 126.812 14.5631C126.042 14.5631 125.241 14.8004 124.406 15.268C123.571 15.7391 122.479 16.5128 121.13 17.5857L119.922 26.4023H117.194L119.135 12.6134H121.301V12.6168Z" fill="white"/>
<path d="M142.902 12.6168H145.688C144.901 15.0858 143.381 17.1283 141.133 18.7479C141.413 19.1812 141.694 19.7279 141.978 20.3882L144.651 26.4058H141.725L139.082 20.0477C138.237 20.5016 137.152 21.0277 135.821 21.6295L135.119 26.4058H132.418L135.174 6.62671H137.902L136.663 15.8938C136.495 17.0252 136.194 18.153 135.762 19.2843C137.542 18.435 139.086 17.4447 140.39 16.303C141.687 15.1649 142.526 13.9373 142.902 12.6168Z" fill="white"/>
<path d="M13.4753 20.23H0V27.0007H13.4753V20.23Z" fill="white"/>
<path d="M20.1667 6.73682H6.69141V20.2747H20.1667V6.73682Z" fill="white"/>
<path d="M6.64704 0.199951H0.0925293V6.69211H6.64704V0.199951Z" fill="white"/>
<path d="M26.5808 0.199951H20.1187V6.69211H26.5808V0.199951Z" fill="white"/>
</svg>
